<svg width="30" height="30" viewBox="0 0 30 30" fill="none" xmlns="http://www.w3.org/2000/svg">
<path d="M15.0009 19.4581C15.7511 19.4581 16.3592 18.85 16.3592 18.0998C16.3592 17.3496 15.7511 16.7415 15.0009 16.7415C14.2507 16.7415 13.6426 17.3496 13.6426 18.0998C13.6426 18.85 14.2507 19.4581 15.0009 19.4581Z" fill="#3C0945"/>
<path d="M20.2333 12.9416V11.9C20.2333 9.64996 19.6916 6.66663 15 6.66663C10.3083 6.66663 9.76663 9.64996 9.76663 11.9V12.9416C7.43329 13.2333 6.66663 14.4166 6.66663 17.325V18.875C6.66663 22.2916 7.70829 23.3333 11.125 23.3333H18.875C22.2916 23.3333 23.3333 22.2916 23.3333 18.875V17.325C23.3333 14.4166 22.5666 13.2333 20.2333 12.9416ZM15 20.6166C13.6083 20.6166 12.4833 19.4833 12.4833 18.1C12.4833 16.7083 13.6166 15.5833 15 15.5833C16.3833 15.5833 17.5166 16.7166 17.5166 18.1C17.5166 19.4916 16.3916 20.6166 15 20.6166ZM11.125 12.8666C11.0583 12.8666 11 12.8666 10.9333 12.8666V11.9C10.9333 9.45829 11.625 7.83329 15 7.83329C18.375 7.83329 19.0666 9.45829 19.0666 11.9V12.875C19 12.875 18.9416 12.875 18.875 12.875H11.125V12.8666Z" fill="#3C0945"/>
<rect x="0.5" y="0.5" width="29" height="29" rx="14.5" stroke="#3C0945"/>
</svg>
