<svg width="30" height="30" viewBox="0 0 30 30" fill="none" xmlns="http://www.w3.org/2000/svg">
<path d="M21.4906 8.51697C19.024 6.05863 15.024 6.05863 12.5739 8.51697C10.8489 10.2253 10.3323 12.6836 10.9989 14.8503L7.08228 18.767C6.80728 19.0503 6.61561 19.6086 6.67394 20.0086L6.92394 21.8253C7.01561 22.4253 7.57394 22.992 8.17394 23.0753L9.99061 23.3253C10.3906 23.3836 10.9489 23.2003 11.2323 22.9086L11.9156 22.2253C12.0823 22.067 12.0823 21.8003 11.9156 21.6336L10.2989 20.017C10.0573 19.7753 10.0573 19.3753 10.2989 19.1336C10.5406 18.892 10.9406 18.892 11.1823 19.1336L12.8073 20.7586C12.9656 20.917 13.2323 20.917 13.3906 20.7586L15.1573 19.0003C17.3156 19.6753 19.774 19.1503 21.4906 17.442C23.949 14.9836 23.949 10.9753 21.4906 8.51697ZM17.0823 15.0003C15.9323 15.0003 14.999 14.067 14.999 12.917C14.999 11.767 15.9323 10.8336 17.0823 10.8336C18.2323 10.8336 19.1656 11.767 19.1656 12.917C19.1656 14.067 18.2323 15.0003 17.0823 15.0003Z" fill="#3C0945"/>
<rect x="0.5" y="0.5" width="29" height="29" rx="14.5" stroke="#3C0945"/>
</svg>
