<svg width="41" height="43" viewBox="0 0 41 43" fill="none" xmlns="http://www.w3.org/2000/svg">
<path d="M27.6875 25.8125V28.6875C27.6875 29.4826 27.0451 30.125 26.25 30.125L14.75 30.125C13.9549 30.125 13.3125 29.4826 13.3125 28.6875V25.8125C13.3125 25.0174 12.6701 24.375 11.875 24.375C11.0799 24.375 10.4375 25.0174 10.4375 25.8125V28.6875C10.4375 31.0684 12.3691 33 14.75 33H26.25C28.6309 33 30.5625 31.0684 30.5625 28.6875V25.8125C30.5625 25.0174 29.9201 24.375 29.125 24.375C28.3299 24.375 27.6875 25.0174 27.6875 25.8125ZM19.4848 25.3902C20.0463 25.9518 20.9582 25.9518 21.5197 25.3902L27.2697 19.6402C27.8312 19.0787 27.8312 18.1668 27.2697 17.6053C26.7082 17.0438 25.7963 17.0438 25.2348 17.6053L21.9375 20.9025V11.4375C21.9375 10.6424 21.2951 10 20.5 10C19.7049 10 19.0625 10.6424 19.0625 11.4375V20.9025L15.7652 17.6053C15.2037 17.0438 14.2918 17.0438 13.7303 17.6053C13.1687 18.1668 13.1687 19.0787 13.7303 19.6402L19.4803 25.3902H19.4848Z" fill="#27983A"/>
<rect x="1.4375" y="42" width="41" height="38.125" rx="19.0625" transform="rotate(-90 1.4375 42)" stroke="#27983A" stroke-width="2"/>
</svg>
