<svg width="25" height="25" viewBox="0 0 25 25" fill="none" xmlns="http://www.w3.org/2000/svg">
<path d="M21 10.69H18.11C15.74 10.69 13.81 8.76 13.81 6.39V3.5C13.81 2.95 13.36 2.5 12.81 2.5H8.57C5.49 2.5 3 4.5 3 8.07V16.93C3 20.5 5.49 22.5 8.57 22.5H16.43C19.51 22.5 22 20.5 22 16.93V11.69C22 11.14 21.55 10.69 21 10.69ZM12.78 16.28L10.78 18.28C10.71 18.35 10.62 18.41 10.53 18.44C10.44 18.48 10.35 18.5 10.25 18.5C10.15 18.5 10.06 18.48 9.97 18.44C9.89 18.41 9.81 18.35 9.75 18.29C9.74 18.28 9.73 18.28 9.73 18.27L7.73 16.27C7.44 15.98 7.44 15.5 7.73 15.21C8.02 14.92 8.5 14.92 8.79 15.21L9.5 15.94V11.75C9.5 11.34 9.84 11 10.25 11C10.66 11 11 11.34 11 11.75V15.94L11.72 15.22C12.01 14.93 12.49 14.93 12.78 15.22C13.07 15.51 13.07 15.99 12.78 16.28Z" fill="white"/>
<path d="M17.9297 9.31048C18.8797 9.32048 20.1997 9.32048 21.3297 9.32048C21.8997 9.32048 22.1997 8.65048 21.7997 8.25048C20.3597 6.80048 17.7797 4.19048 16.2997 2.71048C15.8897 2.30048 15.1797 2.58048 15.1797 3.15048V6.64048C15.1797 8.10048 16.4197 9.31048 17.9297 9.31048Z" fill="white"/>
</svg>
