<svg width="52" height="56" viewBox="0 0 52 56" fill="none" xmlns="http://www.w3.org/2000/svg">
<path d="M17.6667 13C15.3685 13 13.5 14.6816 13.5 16.75V39.25C13.5 41.3184 15.3685 43 17.6667 43H34.3333C36.6315 43 38.5 41.3184 38.5 39.25V22.375H30.1667C29.0143 22.375 28.0833 21.5371 28.0833 20.5V13H17.6667ZM30.1667 13V20.5H38.5L30.1667 13ZM18.7083 16.75H22.875C23.4479 16.75 23.9167 17.1719 23.9167 17.6875C23.9167 18.2031 23.4479 18.625 22.875 18.625H18.7083C18.1354 18.625 17.6667 18.2031 17.6667 17.6875C17.6667 17.1719 18.1354 16.75 18.7083 16.75ZM18.7083 20.5H22.875C23.4479 20.5 23.9167 20.9219 23.9167 21.4375C23.9167 21.9531 23.4479 22.375 22.875 22.375H18.7083C18.1354 22.375 17.6667 21.9531 17.6667 21.4375C17.6667 20.9219 18.1354 20.5 18.7083 20.5ZM19.75 26.125H32.25C33.4023 26.125 34.3333 26.9629 34.3333 28V31.75C34.3333 32.7871 33.4023 33.625 32.25 33.625H19.75C18.5977 33.625 17.6667 32.7871 17.6667 31.75V28C17.6667 26.9629 18.5977 26.125 19.75 26.125ZM19.75 28V31.75H32.25V28H19.75ZM29.125 37.375H33.2917C33.8646 37.375 34.3333 37.7969 34.3333 38.3125C34.3333 38.8281 33.8646 39.25 33.2917 39.25H29.125C28.5521 39.25 28.0833 38.8281 28.0833 38.3125C28.0833 37.7969 28.5521 37.375 29.125 37.375Z" fill="#3C0945"/>
<rect x="1.5" y="1" width="49" height="54" rx="24.5" stroke="#3C0945" stroke-width="2"/>
</svg>
