<svg width="26" height="20" viewBox="0 0 26 20" fill="none" xmlns="http://www.w3.org/2000/svg">
<path d="M12.5228 2.14286C9.69321 2.14286 7.36703 3.46429 5.58333 5.16518C3.91247 6.76339 2.75805 8.66071 2.16783 10C2.75805 11.3393 3.91247 13.2366 5.57899 14.8348C7.36703 16.5357 9.69321 17.8571 12.5228 17.8571C15.3524 17.8571 17.6786 16.5357 19.4623 14.8348C21.1332 13.2366 22.2876 11.3393 22.8778 10C22.2876 8.66071 21.1332 6.76339 19.4667 5.16518C17.6786 3.46429 15.3524 2.14286 12.5228 2.14286ZM4.16418 3.59821C6.20827 1.64286 9.01619 0 12.5228 0C16.0295 0 18.8374 1.64286 20.8815 3.59821C22.9126 5.54018 24.2709 7.85714 24.9176 9.45089C25.0608 9.80357 25.0608 10.1964 24.9176 10.5491C24.2709 12.1429 22.9126 14.4643 20.8815 16.4018C18.8374 18.3571 16.0295 20 12.5228 20C9.01619 20 6.20827 18.3571 4.16418 16.4018C2.13311 14.4643 0.774718 12.1429 0.132412 10.5491C-0.0108046 10.1964 -0.0108046 9.80357 0.132412 9.45089C0.774718 7.85714 2.13311 5.53571 4.16418 3.59821ZM12.5228 13.5714C14.4411 13.5714 15.9948 11.9732 15.9948 10C15.9948 8.02679 14.4411 6.42857 12.5228 6.42857C12.4925 6.42857 12.4664 6.42857 12.436 6.42857C12.4925 6.65625 12.5228 6.89732 12.5228 7.14286C12.5228 8.71875 11.2773 10 9.74529 10C9.5066 10 9.27224 9.96875 9.05091 9.91071C9.05091 9.94196 9.05091 9.96875 9.05091 10C9.05091 11.9732 10.6046 13.5714 12.5228 13.5714ZM12.5228 4.28571C13.9961 4.28571 15.4091 4.88775 16.4509 5.95939C17.4926 7.03103 18.0779 8.48448 18.0779 10C18.0779 11.5155 17.4926 12.969 16.4509 14.0406C15.4091 15.1122 13.9961 15.7143 12.5228 15.7143C11.0495 15.7143 9.63658 15.1122 8.5948 14.0406C7.55302 12.969 6.96776 11.5155 6.96776 10C6.96776 8.48448 7.55302 7.03103 8.5948 5.95939C9.63658 4.88775 11.0495 4.28571 12.5228 4.28571Z" fill="#6A5C6C"/>
</svg>
