<svg width="25" height="20" viewBox="0 0 25 20" fill="none" xmlns="http://www.w3.org/2000/svg">
<path d="M1.51582 0.199434C1.10958 -0.120872 0.519742 -0.0466544 0.199435 0.359587C-0.120872 0.765828 -0.0466546 1.35566 0.359588 1.67596L23.4842 19.8006C23.8904 20.1209 24.4803 20.0467 24.8006 19.6404C25.1209 19.2342 25.0467 18.6443 24.6404 18.324L20.5311 15.1054C22.078 13.5195 23.1248 11.7421 23.6521 10.4805C23.7811 10.1719 23.7811 9.82813 23.6521 9.51954C23.0701 8.12504 21.8475 6.09384 20.0194 4.39856C18.1835 2.68766 15.6562 1.25019 12.5 1.25019C9.83598 1.25019 7.61727 2.27751 5.88683 3.62514L1.51582 0.199434ZM7.41415 4.82043C8.82819 3.81654 10.5274 3.12515 12.5 3.12515C15.0468 3.12515 17.1405 4.28138 18.746 5.76962C20.2499 7.16803 21.2889 8.82815 21.8201 10C21.328 11.0937 20.3905 12.6093 19.0507 13.9413L16.9491 12.2929C17.3046 11.6054 17.5038 10.8281 17.5038 10C17.5038 7.23834 15.2656 5.00011 12.5039 5.00011C11.2461 5.00011 10.0938 5.46494 9.2149 6.23055L7.41415 4.82043ZM15.4257 11.1015L12.2422 8.6055C12.4063 8.27348 12.5 7.89458 12.5 7.50005C12.5 7.28522 12.4727 7.07428 12.4219 6.87507C12.4492 6.87507 12.4727 6.87507 12.5 6.87507C14.2265 6.87507 15.6249 8.27348 15.6249 10C15.6249 10.3867 15.5546 10.7578 15.4257 11.1015ZM15.7929 16.1913C14.7968 16.617 13.6992 16.8748 12.5 16.8748C9.95317 16.8748 7.85946 15.7186 6.25402 14.2304C4.75014 12.832 3.71109 11.1718 3.17985 10C3.50406 9.28127 4.01968 8.37894 4.71889 7.46881L3.24626 6.30867C2.35565 7.46881 1.71894 8.62503 1.34785 9.51954C1.21895 9.82813 1.21895 10.1719 1.34785 10.4805C1.92987 11.875 3.15251 13.9062 4.9806 15.6014C6.81651 17.3123 9.34381 18.7498 12.5 18.7498C14.3672 18.7498 16.0117 18.2459 17.4296 17.4803L15.7929 16.1913ZM7.50009 10C7.50009 12.7617 9.73833 14.9999 12.5 14.9999C13.0195 14.9999 13.5195 14.9218 13.9922 14.7733L11.7969 13.0468C10.8789 12.8359 10.1133 12.2187 9.69927 11.3945L7.5079 9.66798C7.50009 9.77735 7.49618 9.88672 7.49618 10H7.50009Z" fill="#6A5C6C"/>
</svg>
