<svg width="30" height="30" viewBox="0 0 30 30" fill="none" xmlns="http://www.w3.org/2000/svg">
<path d="M23.3333 11.5084V15.4167H19.9333C19.8333 15.4084 19.6166 15.2834 19.5666 15.1917L18.7 13.5501C18.3583 12.9001 17.7666 12.5334 17.1333 12.5667C16.5 12.6001 15.9583 13.0251 15.6833 13.7167L14.5333 16.6001L14.3666 16.1667C13.9583 15.1084 12.7916 14.3084 11.6416 14.3084L6.66663 14.3334V11.5084C6.66663 8.47508 8.47496 6.66675 11.5083 6.66675H18.4916C21.525 6.66675 23.3333 8.47508 23.3333 11.5084Z" fill="#3C0945"/>
<path d="M23.3333 18.4906V16.6656H19.9333C19.375 16.6656 18.7166 16.2656 18.4583 15.774L17.5916 14.1323C17.3583 13.6906 17.025 13.7156 16.8416 14.174L14.925 19.0156C14.7166 19.5573 14.3666 19.5573 14.15 19.0156L13.2 16.6156C12.975 16.0323 12.275 15.5573 11.65 15.5573L6.66663 15.5823V18.4906C6.66663 21.474 8.41663 23.274 11.3583 23.324C11.45 23.3323 11.55 23.3323 11.6416 23.3323H18.3083C18.4333 23.3323 18.5583 23.3323 18.675 23.324C21.6 23.2573 23.3333 21.4656 23.3333 18.4906Z" fill="#3C0945"/>
<path d="M6.66721 15.5828V18.3411C6.65055 18.0744 6.64221 17.7911 6.64221 17.4994V15.5828H6.66721Z" fill="#3C0945"/>
<rect x="0.5" y="0.5" width="29" height="29" rx="14.5" stroke="#3C0945"/>
</svg>
