<svg width="35" height="36" viewBox="0 0 35 36" fill="none" xmlns="http://www.w3.org/2000/svg">
<path d="M30.4199 12.706L20.3136 4.62686C18.7532 3.37269 16.2303 3.37269 14.6844 4.61228L4.57817 12.706C3.44067 13.6102 2.7115 15.5205 2.95942 16.9497L4.899 28.558C5.249 30.6289 7.23234 32.306 9.33234 32.306H25.6657C27.7511 32.306 29.749 30.6143 30.099 28.558L32.0386 16.9497C32.2719 15.5205 31.5428 13.6102 30.4199 12.706ZM17.499 23.1039C15.4865 23.1039 13.8532 21.4705 13.8532 19.458C13.8532 17.4455 15.4865 15.8122 17.499 15.8122C19.5115 15.8122 21.1449 17.4455 21.1449 19.458C21.1449 21.4705 19.5115 23.1039 17.499 23.1039Z" fill="white"/>
</svg>
