<svg width="26" height="25" viewBox="0 0 26 25" fill="none" xmlns="http://www.w3.org/2000/svg">
<g clip-path="url(#clip0_217_247)">
<path d="M14.3889 1.56244C14.3889 1.07904 14.1936 0.624943 13.855 0.331975C13.5165 0.0390058 13.0781 -0.0684161 12.6615 0.0487714L4.8533 2.24604C3.92882 2.50483 3.27778 3.44233 3.27778 4.51654V21.8749H1.88889C1.12066 21.8749 0.5 22.5732 0.5 23.4374C0.5 24.3017 1.12066 24.9999 1.88889 24.9999H4.66667H13H14.3889V23.4374V1.56244ZM11.6111 12.4999C11.6111 13.3642 11.1467 14.0624 10.5694 14.0624C9.99219 14.0624 9.52778 13.3642 9.52778 12.4999C9.52778 11.6357 9.99219 10.9374 10.5694 10.9374C11.1467 10.9374 11.6111 11.6357 11.6111 12.4999ZM15.7778 6.24994H19.9444V23.4374C19.9444 24.3017 20.5651 24.9999 21.3333 24.9999H24.1111C24.8793 24.9999 25.5 24.3017 25.5 23.4374C25.5 22.5732 24.8793 21.8749 24.1111 21.8749H22.7222V6.24994C22.7222 4.52631 21.4766 3.12494 19.9444 3.12494H15.7778V6.24994Z" fill="white"/>
</g>
<defs>
<clipPath id="clip0_217_247">
<rect width="25" height="25" fill="white" transform="translate(0.5)"/>
</clipPath>
</defs>
</svg>
