<svg width="20" height="23" viewBox="0 0 20 23" fill="none" xmlns="http://www.w3.org/2000/svg">
<path d="M9.999 0C9.20882 0 8.57043 0.642383 8.57043 1.4375V2.2416C5.33382 2.7582 2.85614 5.5793 2.85614 8.98438V10.4848C2.85614 12.5242 2.16418 14.5053 0.900787 16.0955L0.235609 16.9355C-0.0233197 17.259 -0.0724268 17.7037 0.106145 18.0766C0.284716 18.4494 0.659716 18.6875 1.07043 18.6875H18.9276C19.3383 18.6875 19.7133 18.4494 19.8919 18.0766C20.0704 17.7037 20.0213 17.259 19.7624 16.9355L19.0972 16.1C17.8338 14.5053 17.1419 12.5242 17.1419 10.4848V8.98438C17.1419 5.5793 14.6642 2.7582 11.4276 2.2416V1.4375C11.4276 0.642383 10.7892 0 9.999 0ZM9.999 4.3125H10.3561C12.9186 4.3125 14.999 6.40586 14.999 8.98438V10.4848C14.999 12.6365 15.6195 14.7344 16.7713 16.5312H3.22668C4.37847 14.7344 4.999 12.6365 4.999 10.4848V8.98438C4.999 6.40586 7.07936 4.3125 9.64186 4.3125H9.999ZM12.8561 20.125H9.999H7.14186C7.14186 20.8887 7.44097 21.6209 7.97668 22.16C8.51239 22.699 9.24007 23 9.999 23C10.7579 23 11.4856 22.699 12.0213 22.16C12.557 21.6209 12.8561 20.8887 12.8561 20.125Z" fill="#3C0945"/>
</svg>
