<svg width="41" height="43" viewBox="0 0 41 43" fill="none" xmlns="http://www.w3.org/2000/svg">
<path d="M21.5089 10.4212C20.9509 9.85961 20.0446 9.85961 19.4866 10.4212L13.7723 16.1714C13.2143 16.733 13.2143 17.645 13.7723 18.2065C14.3304 18.7681 15.2366 18.7681 15.7946 18.2065L19.0714 14.9091V24.3746C19.0714 25.1697 19.7098 25.8122 20.5 25.8122C21.2902 25.8122 21.9286 25.1697 21.9286 24.3746V14.9091L25.2054 18.2065C25.7634 18.7681 26.6696 18.7681 27.2277 18.2065C27.7857 17.645 27.7857 16.733 27.2277 16.1714L21.5134 10.4212H21.5089ZM13.3571 25.8122C13.3571 25.017 12.7188 24.3746 11.9286 24.3746C11.1384 24.3746 10.5 25.017 10.5 25.8122V28.6873C10.5 31.0683 12.4196 33 14.7857 33H26.2143C28.5804 33 30.5 31.0683 30.5 28.6873V25.8122C30.5 25.017 29.8616 24.3746 29.0714 24.3746C28.2812 24.3746 27.6429 25.017 27.6429 25.8122V28.6873C27.6429 29.4824 27.0045 30.1249 26.2143 30.1249H14.7857C13.9955 30.1249 13.3571 29.4824 13.3571 28.6873V25.8122Z" fill="#610606" fill-opacity="0.7"/>
<rect x="1.5" y="1" width="38" height="41" rx="19" stroke="#610606" stroke-opacity="0.7" stroke-width="2"/>
</svg>
