<svg width="30" height="30" viewBox="0 0 30 30" fill="none" xmlns="http://www.w3.org/2000/svg">
<path d="M20.2734 9.72508L10.4901 19.5084C10.1234 19.8751 9.50674 19.8251 9.20674 19.3917C8.17341 17.8834 7.56506 16.1001 7.56506 14.2667V10.6084C7.56506 9.92508 8.08174 9.15008 8.71507 8.89175L13.3567 6.99175C14.4067 6.55841 15.5734 6.55841 16.6234 6.99175L19.9984 8.36675C20.5484 8.59175 20.69 9.30841 20.2734 9.72508Z" fill="#3C0945"/>
<path d="M21.0583 10.8681C21.6 10.4097 22.425 10.8014 22.425 11.5097V14.2681C22.425 18.3431 19.4666 22.1597 15.425 23.2764C15.15 23.3514 14.85 23.3514 14.5666 23.2764C13.3833 22.9431 12.2833 22.3847 11.3416 21.6514C10.9416 21.3431 10.9 20.7597 11.25 20.4014C13.0666 18.5431 18.3833 13.1264 21.0583 10.8681Z" fill="#3C0945"/>
<rect x="0.5" y="0.5" width="29" height="29" rx="14.5" stroke="#3C0945"/>
</svg>
