<svg width="35" height="36" viewBox="0 0 35 36" fill="none" xmlns="http://www.w3.org/2000/svg">
<path d="M28.4549 9.03125L19.7924 4.02917C18.3778 3.21251 16.6278 3.21251 15.1986 4.02917L6.55068 9.03125C5.13609 9.84792 4.26111 11.3646 4.26111 13.0125V22.9875C4.26111 24.6208 5.13609 26.1375 6.55068 26.9688L15.2132 31.9708C16.6278 32.7875 18.3778 32.7875 19.807 31.9708L28.4695 26.9688C29.8841 26.1521 30.7591 24.6354 30.7591 22.9875V13.0125C30.7445 11.3646 29.8695 9.8625 28.4549 9.03125ZM17.5028 11.2042C19.3841 11.2042 20.9007 12.7208 20.9007 14.6021C20.9007 16.4833 19.3841 18 17.5028 18C15.6216 18 14.1049 16.4833 14.1049 14.6021C14.1049 12.7354 15.6216 11.2042 17.5028 11.2042ZM21.4111 24.7958H13.5944C12.4132 24.7958 11.7278 23.4833 12.384 22.5063C13.3757 21.0333 15.3007 20.0417 17.5028 20.0417C19.7049 20.0417 21.6299 21.0333 22.6216 22.5063C23.2778 23.4688 22.5778 24.7958 21.4111 24.7958Z" fill="#4B4B4E"/>
</svg>
