<svg width="45" height="45" viewBox="0 0 45 45" fill="none" xmlns="http://www.w3.org/2000/svg">
<path d="M5.19375 18.75C4.3875 18.75 3.75 18.1125 3.75 17.3062V12.975C3.75 7.89375 7.89375 3.75 12.975 3.75H17.3062C18.1125 3.75 18.75 4.3875 18.75 5.19375C18.75 6 18.1125 6.6375 17.3062 6.6375H12.975C9.46875 6.6375 6.6375 9.4875 6.6375 12.975V17.3062C6.6375 18.1125 5.98125 18.75 5.19375 18.75Z" fill="#4B4B4E"/>
<path d="M39.8062 18.75C39.0187 18.75 38.3625 18.1125 38.3625 17.3062V12.975C38.3625 9.46875 35.5125 6.6375 32.025 6.6375H27.6938C26.8875 6.6375 26.25 5.98125 26.25 5.19375C26.25 4.40625 26.8875 3.75 27.6938 3.75H32.025C37.1062 3.75 41.25 7.89375 41.25 12.975V17.3062C41.25 18.1125 40.6125 18.75 39.8062 18.75Z" fill="#4B4B4E"/>
<path d="M32.0285 41.2494H29.4223C28.6348 41.2494 27.9785 40.6119 27.9785 39.8057C27.9785 39.0182 28.616 38.3619 29.4223 38.3619H32.0285C35.5348 38.3619 38.366 35.5119 38.366 32.0244V29.4369C38.366 28.6494 39.0035 27.9932 39.8098 27.9932C40.5973 27.9932 41.2535 28.6307 41.2535 29.4369V32.0244C41.2535 37.1057 37.1098 41.2494 32.0285 41.2494Z" fill="#4B4B4E"/>
<path d="M17.3062 41.25H12.975C7.89375 41.25 3.75 37.1062 3.75 32.025V27.6938C3.75 26.8875 4.3875 26.25 5.19375 26.25C6 26.25 6.6375 26.8875 6.6375 27.6938V32.025C6.6375 35.5312 9.4875 38.3625 12.975 38.3625H17.3062C18.0937 38.3625 18.75 39 18.75 39.8062C18.75 40.6125 18.1125 41.25 17.3062 41.25Z" fill="#4B4B4E"/>
<path d="M34.6116 21.0572H32.0616H12.9366H10.3866C9.58037 21.0572 8.94287 21.7134 8.94287 22.5009C8.94287 23.2884 9.58037 23.9447 10.3866 23.9447H12.9366H32.0616H34.6116C35.4178 23.9447 36.0553 23.2884 36.0553 22.5009C36.0553 21.7134 35.4178 21.0572 34.6116 21.0572Z" fill="#4B4B4E"/>
<path d="M12.9346 26.1384V26.7572C12.9346 29.8697 15.4471 32.3822 18.5596 32.3822H26.4345C29.547 32.3822 32.0595 29.8697 32.0595 26.7572V26.1384C32.0595 25.9134 31.8907 25.7447 31.6657 25.7447H13.3283C13.1033 25.7447 12.9346 25.9134 12.9346 26.1384Z" fill="#4B4B4E"/>
<path d="M12.9346 18.8634V18.2446C12.9346 15.1321 15.4471 12.6196 18.5596 12.6196H26.4345C29.547 12.6196 32.0595 15.1321 32.0595 18.2446V18.8634C32.0595 19.0884 31.8907 19.2572 31.6657 19.2572H13.3283C13.1033 19.2572 12.9346 19.0884 12.9346 18.8634Z" fill="#4B4B4E"/>
</svg>
