<svg width="30" height="30" viewBox="0 0 30 30" fill="none" xmlns="http://www.w3.org/2000/svg">
<path d="M22.0834 13.4916H19.675C17.7 13.4916 16.0917 11.8833 16.0917 9.90829V7.49996C16.0917 7.04163 15.7167 6.66663 15.2584 6.66663H11.725C9.15837 6.66663 7.08337 8.33329 7.08337 11.3083V18.6916C7.08337 21.6666 9.15837 23.3333 11.725 23.3333H18.275C20.8417 23.3333 22.9167 21.6666 22.9167 18.6916V14.325C22.9167 13.8666 22.5417 13.4916 22.0834 13.4916Z" fill="#3C0945"/>
<path d="M18.1664 6.84207C17.8247 6.5004 17.233 6.73373 17.233 7.20873V10.1171C17.233 11.3337 18.2664 12.3421 19.5247 12.3421C20.3164 12.3504 21.4164 12.3504 22.358 12.3504C22.833 12.3504 23.083 11.7921 22.7497 11.4587C21.5497 10.2504 19.3997 8.0754 18.1664 6.84207Z" fill="#3C0945"/>
<rect x="0.5" y="0.5" width="29" height="29" rx="14.5" stroke="#3C0945"/>
</svg>
