<svg width="51" height="56" viewBox="0 0 51 56" fill="none" xmlns="http://www.w3.org/2000/svg">
<path d="M13.9115 13.1279C14.4648 12.8994 15.1159 12.9814 15.5781 13.3389L18.2083 15.3664L20.8385 13.3389C21.4245 12.8877 22.2904 12.8877 22.8698 13.3389L25.5 15.3664L28.1302 13.3389C28.7161 12.8877 29.5755 12.8877 30.1615 13.3389L32.7917 15.3664L35.4219 13.3389C35.8841 12.9814 36.5352 12.8994 37.0885 13.1279C37.6419 13.3565 38 13.8545 38 14.4054V41.5946C38 42.1455 37.6419 42.6435 37.0885 42.8721C36.5352 43.1006 35.8841 43.0186 35.4219 42.6611L32.7917 40.6336L30.1615 42.6611C29.5755 43.1123 28.7161 43.1123 28.1302 42.6611L25.5 40.6336L22.8698 42.6611C22.2839 43.1123 21.418 43.1123 20.8385 42.6611L18.2083 40.6336L15.5781 42.6611C15.1159 43.0186 14.4648 43.1006 13.9115 42.8721C13.3581 42.6435 13 42.1455 13 41.5946V14.4054C13 13.8545 13.3581 13.3565 13.9115 13.1279ZM19.25 21.4371C18.6771 21.4371 18.2083 21.859 18.2083 22.3746C18.2083 22.8903 18.6771 23.3122 19.25 23.3122H31.75C32.3229 23.3122 32.7917 22.8903 32.7917 22.3746C32.7917 21.859 32.3229 21.4371 31.75 21.4371H19.25ZM18.2083 33.6254C18.2083 34.141 18.6771 34.5629 19.25 34.5629H31.75C32.3229 34.5629 32.7917 34.141 32.7917 33.6254C32.7917 33.1097 32.3229 32.6878 31.75 32.6878H19.25C18.6771 32.6878 18.2083 33.1097 18.2083 33.6254ZM19.25 27.0624C18.6771 27.0624 18.2083 27.4843 18.2083 28C18.2083 28.5157 18.6771 28.9376 19.25 28.9376H31.75C32.3229 28.9376 32.7917 28.5157 32.7917 28C32.7917 27.4843 32.3229 27.0624 31.75 27.0624H19.25Z" fill="#3C0945"/>
<rect x="1" y="1" width="49" height="54" rx="24.5" stroke="#3C0945" stroke-width="2"/>
</svg>
