<svg width="16" height="15" viewBox="0 0 16 15" fill="none" xmlns="http://www.w3.org/2000/svg">
<g clip-path="url(#clip0_112_66)">
<path d="M14.0938 7.5C14.0938 9.11616 13.4517 10.6661 12.3089 11.8089C11.1661 12.9517 9.61616 13.5938 8 13.5938C6.38384 13.5938 4.83387 12.9517 3.69107 11.8089C2.54827 10.6661 1.90625 9.11616 1.90625 7.5C1.90625 5.88384 2.54827 4.33387 3.69107 3.19107C4.83387 2.04827 6.38384 1.40625 8 1.40625C9.61616 1.40625 11.1661 2.04827 12.3089 3.19107C13.4517 4.33387 14.0938 5.88384 14.0938 7.5ZM0.5 7.5C0.5 9.48912 1.29018 11.3968 2.6967 12.8033C4.10322 14.2098 6.01088 15 8 15C9.98912 15 11.8968 14.2098 13.3033 12.8033C14.7098 11.3968 15.5 9.48912 15.5 7.5C15.5 5.51088 14.7098 3.60322 13.3033 2.1967C11.8968 0.790176 9.98912 0 8 0C6.01088 0 4.10322 0.790176 2.6967 2.1967C1.29018 3.60322 0.5 5.51088 0.5 7.5ZM7.29688 3.51562V7.5C7.29688 7.73438 7.41406 7.9541 7.61035 8.08594L10.4229 9.96094C10.7451 10.1777 11.1816 10.0898 11.3984 9.76465C11.6152 9.43945 11.5273 9.00586 11.2021 8.78906L8.70312 7.125V3.51562C8.70312 3.12598 8.38965 2.8125 8 2.8125C7.61035 2.8125 7.29688 3.12598 7.29688 3.51562Z" fill="black" fill-opacity="0.5"/>
</g>
<defs>
<clipPath id="clip0_112_66">
<rect width="15" height="15" fill="white" transform="translate(0.5)"/>
</clipPath>
</defs>
</svg>
